<svg width="208" height="58" viewBox="0 0 208 58" fill="none" xmlns="http://www.w3.org/2000/svg">
<path d="M196.363 51.4941C195.052 51.4941 193.965 52.5566 193.965 53.8379C193.965 55.1192 195.052 56.1817 196.363 56.1817C197.673 56.1817 198.76 55.1192 198.76 53.8379C198.76 52.5566 197.673 51.4941 196.363 51.4941ZM196.363 55.7754C195.276 55.7754 194.38 54.9004 194.38 53.8379C194.38 52.7754 195.276 51.9004 196.363 51.9004C197.45 51.9004 198.345 52.7754 198.345 53.8379C198.345 54.9004 197.45 55.7754 196.363 55.7754Z" fill="#3165F8"/>
<path d="M196.777 54.0254C197 53.9004 197.128 53.6504 197.128 53.4004C197.128 53.0566 196.968 52.8379 196.713 52.7441C196.617 52.7129 196.489 52.6816 196.265 52.6816H195.466V54.9317H196.041V54.1817H196.297L196.713 54.9317H197.352L196.904 54.1504L196.809 54.0254H196.777ZM196.265 53.7129H196.009V53.1504H196.201C196.489 53.1504 196.553 53.2441 196.553 53.4316C196.553 53.6191 196.425 53.7129 196.265 53.7129Z" fill="#3165F8"/>
<path d="M188.625 1.4624H169.507L166.693 10.8062H188.625V1.4624Z" fill="#3165F8"/>
<path d="M188.625 13.1188H166.022L163.305 22.0563H188.625V13.1188Z" fill="#3165F8"/>
<path d="M188.625 35.8063H175.134V44.8376H188.625V35.8063Z" fill="#3165F8"/>
<path d="M148.567 1.4624H130.567V10.8062H151.38L148.567 1.4624Z" fill="#3165F8"/>
<path d="M188.625 47.1191H175.134V56.1505H188.625V47.1191Z" fill="#3165F8"/>
<path d="M152.051 13.1188H130.567V22.0563H154.769L152.051 13.1188Z" fill="#3165F8"/>
<path d="M108.506 1.4624H81.9385V10.8062H121.997C119.983 5.39993 114.452 1.4624 108.506 1.4624Z" fill="#3165F8"/>
<path d="M108.061 22.0565H121.009C123.694 19.1814 123.471 15.4627 122.48 13.1501H105.919C110.299 14.3689 111.194 20.0877 108.061 22.0565Z" fill="#3165F8"/>
<path d="M144.059 35.8063H130.567V44.8376H144.059V35.8063Z" fill="#3165F8"/>
<path d="M144.059 47.1191H130.567V56.1505H144.059V47.1191Z" fill="#3165F8"/>
<path d="M110.296 35.9003C113.461 37.869 112.534 43.5878 108.154 44.8066H124.715C125.738 42.4941 125.962 38.744 123.244 35.9003H110.296Z" fill="#3165F8"/>
<path d="M95.2062 13.1188H81.9385V22.0251H95.2062V13.1188Z" fill="#3165F8"/>
<path d="M61.3513 18.3063H76.0896C75.2903 16.4313 74.3952 14.5563 73.4041 13.025H54.7334C58.6658 14.025 60.0085 15.775 61.3832 18.3063H61.3513Z" fill="#3165F8"/>
<path d="M81.9385 56.1505H109.401C115.827 56.1505 121.55 52.5254 123.916 47.1191H81.9385V56.1505Z" fill="#3165F8"/>
<path d="M95.2062 35.8063H81.9385V44.8376H95.2062V35.8063Z" fill="#3165F8"/>
<path d="M48.403 0.149902C40.4104 0.149902 30.9471 3.99368 25.4482 10.7125H71.4856C66.2105 3.77493 56.1718 0.149902 48.403 0.149902Z" fill="#3165F8"/>
<path d="M54.7012 44.8065H73.3719C75.0663 42.1814 76.409 38.8689 77.4321 35.7751H62.3421C62.3421 38.1814 59.7525 44.1502 54.7012 44.8065Z" fill="#3165F8"/>
<path d="M41.8801 13.025H23.657C21.6428 15.65 20.2681 18.9626 19.7246 22.0563H35.5819C35.5819 18.8688 37.596 14.6813 41.8801 13.025Z" fill="#3165F8"/>
<path d="M48.403 57.6817C56.1718 57.6817 66.1785 54.0567 71.4856 47.1191H25.4482C30.9791 53.8379 40.4104 57.6817 48.403 57.6817Z" fill="#3165F8"/>
<path d="M35.5819 35.8063H19.7246C20.3001 38.9 21.6428 42.1813 23.657 44.8376H43.031C39.0986 44.1813 35.6139 38.9938 35.6139 35.8063H35.5819Z" fill="#3165F8"/>
<path d="M35.1035 24.369H5.40299L0 33.2753H35.1035V24.369Z" fill="#3165F8"/>
<path d="M162.635 24.369L159.15 34.5878L155.441 24.369H46.8379V33.2753H148.248L156.72 56.1505H161.356L169.86 33.2753H202.598L208 24.369H162.635Z" fill="#3165F8"/>
</svg>
